<svg id="Layer_1" data-name="Layer 1" xmlns="http://www.w3.org/2000/svg" viewBox="0 0 143.56 111.85"><title>Artboard 4</title><polygon points="55.53 50 19.77 111.85 31.32 111.85 42.87 111.85 61.49 79.65 61.49 111.85 81.49 111.85 81.49 79.65 100.11 111.85 111.67 111.85 123.22 111.85 87.45 50 55.53 50"/><polygon points="130.73 24.97 116.29 0 87.45 0 55.53 0 26.69 0 12.25 24.97 0 46.15 17.33 76.11 38.22 39.99 44 30 55.53 30 87.45 30 98.99 30 104.76 39.99 126.23 77.11 143.56 47.15 130.73 24.97"/></svg>